<?xml version="1.0" encoding="UTF-8"?>
<svg id="Layer_2" xmlns="http://www.w3.org/2000/svg" viewBox="0 0 288.11 300.27">
  <defs>
    <style>
      .cls-1 {
        fill: #fff;
      }
    </style>
  </defs>
  <g id="Layer_1-2" data-name="Layer_1">
    <path class="cls-1" d="M0,114.36C20.79,74.76,58.6,40.21,105,37.04c15.34-1.23,30.51.73,45.01,2.94,6.94.99,14.17,2.26,21,2.3,5.17-.13,9.76-.46,11.39-5.24,1.8-5.35-.18-12.35-3.28-17.12-3.17-5.08-8.1-7.43-13.81-7.8-8.75-.43-17.12,2.75-18.54,11.56-1.52,9.77,1.22,20.35,3.17,30.12,4.87,21.51,10.16,43.02,13.47,64.97,3.41,22.03,4.94,44.22,5.67,66.54.6,23.05-.9,49.88-18.98,66.87-8.37,7.95-18.71,13-29.72,15.6-20.79,5.02-44.23.39-60.44-13.97-15.35-13.37-24.92-33.28-25.31-53.71-.18-16.31,6.12-31.97,15.07-45.19,32.51-47.97,112.36-87.51,170.36-76.69,45.28,8.04,55.18,38.56,26.14,73.72-17.23,20.33-43.06,30.74-68.18,36.24,0,0-1.14.28-1.14.28-.14.04-.3.09-.22.06.06-.03.09,0,.73-.34,3.69,5.84,2.53-16.46-2.56-12.49-1.16-.08-1.05.01-1.21,0,2.56-.56,7.04-1.73,9.63-2.34,10.89-2.64,22.36-4.38,33.64-5.04,21.12-1.57,47.39-1.66,61.8,16.87,9.2,11.61,10.9,27.81,8.32,41.78-4.77,26.78-21.24,41.23-45.29,51.49-37.63,16.33-78.84,23.18-119.7,21.62-3.68-.21-7.36-.42-11.02-.69,21.8-1.93,43.54-4.98,64.81-10.11,20.98-5.1,41.6-12.07,61.06-21.36,12.77-6.16,24.69-13.55,31.04-24.7,6.33-10.97,9.11-25.38,6.34-37.75-5-21.96-25.97-25.18-45.71-24.48-14.16.52-28.32,2.01-42.16,5.52-2.99.72-7.42,1.94-10.39,2.56-1.06.11-.81.25-2.58.14-5.43,4-6.54-18.66-2.57-12.88,1.7-.82,2.42-.92,3.99-1.32,22.66-5.15,45.54-14.15,60.63-32.07,7.09-8.72,15.61-22.26,12.08-33.24-2.99-8.33-12.18-12.33-20.32-14.86-36.82-10.96-77.57,2.7-110.26,20.56-32.73,18.42-76.11,54.8-66.18,96.53,4.42,18,17.2,34.65,35.1,40.68,20.86,7.22,48.01,1.4,60.59-17.62,12.15-19.32,9-48.76,8.11-71.06-1.39-28.99-5.92-57.55-12.27-85.91-2.33-10.78-4.97-21.61-6.84-32.59-1.63-10.49-3.35-22.5,2.27-32.4,8.18-13.77,28.18-16.24,41.41-9.06,13.28,7.47,20.82,29.27,11.35,42.2-9.4,12.07-29.36,6.57-42.21,4.93-14.21-2.3-28.22-4.22-42.52-3.24C61.74,50.73,28.86,83.81,0,114.36h0Z"/>
  </g>
</svg>